<svg width="48" height="48" viewBox="0 0 48 48" fill="none" xmlns="http://www.w3.org/2000/svg">
<path d="M9.45001 40C7.35001 40 5.61667 39.2667 4.25001 37.8C2.88334 36.3333 2.16667 34.6167 2.10001 32.65C2.10001 32.3833 2.11667 32.0833 2.15001 31.75C2.18334 31.4167 2.23334 31.1167 2.30001 30.85L6.50001 14.05C6.96667 12.2833 7.92501 10.8333 9.37501 9.7C10.825 8.56667 12.45 8 14.25 8H33.75C35.55 8 37.175 8.56667 38.625 9.7C40.075 10.8333 41.0333 12.2833 41.5 14.05L45.7 30.85C45.7667 31.15 45.825 31.4583 45.875 31.775C45.925 32.0917 45.95 32.4 45.95 32.7C45.95 34.7 45.2417 36.4167 43.825 37.85C42.4083 39.2833 40.65 40 38.55 40C37.15 40 35.85 39.6333 34.65 38.9C33.45 38.1667 32.55 37.1667 31.95 35.9L30.55 33C30.3833 32.6333 30.1417 32.375 29.825 32.225C29.5083 32.075 29.15 32 28.75 32H19.25C18.85 32 18.4917 32.075 18.175 32.225C17.8583 32.375 17.6167 32.6333 17.45 33L16.05 35.9C15.45 37.1667 14.55 38.1667 13.35 38.9C12.15 39.6333 10.85 40 9.45001 40V40ZM9.60001 37C10.3333 37 11.0417 36.8083 11.725 36.425C12.4083 36.0417 12.9667 35.4333 13.4 34.6L14.8 31.75C15.2333 30.8833 15.8417 30.2083 16.625 29.725C17.4083 29.2417 18.2833 29 19.25 29H28.75C29.6833 29 30.55 29.25 31.35 29.75C32.15 30.25 32.7833 30.9167 33.25 31.75L34.65 34.6C35.0833 35.4333 35.6417 36.0417 36.325 36.425C37.0083 36.8083 37.7167 37 38.45 37C39.5833 37 40.6 36.6083 41.5 35.825C42.4 35.0417 42.8667 34.0167 42.9 32.75C42.9 32.5833 42.8917 32.3917 42.875 32.175C42.8583 31.9583 42.8167 31.75 42.75 31.55L38.55 14.8C38.2833 13.6667 37.7083 12.75 36.825 12.05C35.9417 11.35 34.9167 11 33.75 11H14.25C13.0833 11 12.0583 11.35 11.175 12.05C10.2917 12.75 9.71667 13.6667 9.45001 14.8L5.25001 31.55C5.21667 31.6833 5.16667 32.0667 5.10001 32.7C5.10001 33.9667 5.56667 35 6.50001 35.8C7.43334 36.6 8.46667 37 9.60001 37ZM27 21.5C26.6 21.5 26.25 21.35 25.95 21.05C25.65 20.75 25.5 20.3833 25.5 19.95C25.5 19.55 25.65 19.2083 25.95 18.925C26.25 18.6417 26.6167 18.5 27.05 18.5C27.45 18.5 27.7917 18.6417 28.075 18.925C28.3583 19.2083 28.5 19.5667 28.5 20C28.5 20.4 28.3583 20.75 28.075 21.05C27.7917 21.35 27.4333 21.5 27 21.5ZM31 17.5C30.6 17.5 30.25 17.35 29.95 17.05C29.65 16.75 29.5 16.3833 29.5 15.95C29.5 15.55 29.65 15.2083 29.95 14.925C30.25 14.6417 30.6167 14.5 31.05 14.5C31.45 14.5 31.7917 14.6417 32.075 14.925C32.3583 15.2083 32.5 15.5667 32.5 16C32.5 16.4 32.3583 16.75 32.075 17.05C31.7917 17.35 31.4333 17.5 31 17.5V17.5ZM31 25.5C30.6 25.5 30.25 25.35 29.95 25.05C29.65 24.75 29.5 24.3833 29.5 23.95C29.5 23.55 29.65 23.2083 29.95 22.925C30.25 22.6417 30.6167 22.5 31.05 22.5C31.45 22.5 31.7917 22.6417 32.075 22.925C32.3583 23.2083 32.5 23.5667 32.5 24C32.5 24.4 32.3583 24.75 32.075 25.05C31.7917 25.35 31.4333 25.5 31 25.5V25.5ZM35 21.5C34.6 21.5 34.25 21.35 33.95 21.05C33.65 20.75 33.5 20.3833 33.5 19.95C33.5 19.55 33.65 19.2083 33.95 18.925C34.25 18.6417 34.6167 18.5 35.05 18.5C35.45 18.5 35.7917 18.6417 36.075 18.925C36.3583 19.2083 36.5 19.5667 36.5 20C36.5 20.4 36.3583 20.75 36.075 21.05C35.7917 21.35 35.4333 21.5 35 21.5ZM17 24.75C16.6667 24.75 16.375 24.625 16.125 24.375C15.875 24.125 15.75 23.8333 15.75 23.5V21.25H13.5C13.1667 21.25 12.875 21.125 12.625 20.875C12.375 20.625 12.25 20.3333 12.25 20C12.25 19.6667 12.375 19.375 12.625 19.125C12.875 18.875 13.1667 18.75 13.5 18.75H15.75V16.5C15.75 16.1667 15.875 15.875 16.125 15.625C16.375 15.375 16.6667 15.25 17 15.25C17.3333 15.25 17.625 15.375 17.875 15.625C18.125 15.875 18.25 16.1667 18.25 16.5V18.75H20.5C20.8333 18.75 21.125 18.875 21.375 19.125C21.625 19.375 21.75 19.6667 21.75 20C21.75 20.3333 21.625 20.625 21.375 20.875C21.125 21.125 20.8333 21.25 20.5 21.25H18.25V23.5C18.25 23.8333 18.125 24.125 17.875 24.375C17.625 24.625 17.3333 24.75 17 24.75Z" fill="#820AD1"/>
</svg>
